HIERARCHY
ROOT Hips
{
  OFFSET -31.5692 30.0904 122.763
  CHANNELS 6 Xposition Yposition Zposition Zrotation Xrotation Yrotation
  JOINT LeftUpLeg
  {
    OFFSET 8.64259 1.95398 -2.38835
    CHANNELS 3 Zrotation Xrotation Yrotation
    JOINT LeftLeg
    {
      OFFSET 43.7702 0 0
      CHANNELS 3 Zrotation Xrotation Yrotation
      JOINT LeftFoot
      {
        OFFSET 40.6238 0 0
        CHANNELS 3 Zrotation Xrotation Yrotation
        JOINT LeftToeBase
        {
          OFFSET 12.7242 0 0
          CHANNELS 3 Zrotation Xrotation Yrotation
          End Site
          {
            OFFSET 0 0 0
          }
        }
      }
    }
  }
  JOINT RightUpLeg
  {
    OFFSET -8.2249 1.95398 -2.59336
    CHANNELS 3 Zrotation Xrotation Yrotation
    JOINT RightLeg
    {
      OFFSET 43.5653 0 0
      CHANNELS 3 Zrotation Xrotation Yrotation
      JOINT RightFoot
      {
        OFFSET 40.6238 0 0
        CHANNELS 3 Zrotation Xrotation Yrotation
        JOINT RightToeBase
        {
          OFFSET 12.7242 0 0
          CHANNELS 3 Zrotation Xrotation Yrotation
          End Site
          {
            OFFSET 0 0 0
          }
        }
      }
    }
  }
  JOINT Spine
  {
    OFFSET 0.165834 0.87714 6.61349
    CHANNELS 3 Zrotation Xrotation Yrotation
    JOINT Spine1
    {
      OFFSET 7.38963 1.71661e-005 0
      CHANNELS 3 Zrotation Xrotation Yrotation
      JOINT Spine2
      {
        OFFSET 11.9445 1.14441e-005 0
        CHANNELS 3 Zrotation Xrotation Yrotation
        JOINT Spine3
        {
          OFFSET 14.7254 4.19617e-005 0
          CHANNELS 3 Zrotation Xrotation Yrotation
          JOINT Spine4
          {
            OFFSET 10.9679 0 0
            CHANNELS 3 Zrotation Xrotation Yrotation
            JOINT RightShoulder
            {
              OFFSET 2.46616 -1.6653 3.69651
              CHANNELS 3 Zrotation Xrotation Yrotation
              JOINT RightArm
              {
                OFFSET 13.0012 0 0
                CHANNELS 3 Zrotation Xrotation Yrotation
                JOINT RightForeArm
                {
                  OFFSET 28.7848 1.62311e-005 0
                  CHANNELS 3 Zrotation Xrotation Yrotation
                  JOINT RightHand
                  {
                    OFFSET 26.5688 1.62095e-005 0
                    CHANNELS 3 Zrotation Xrotation Yrotation
                    End Site
                    {
                      OFFSET 0 0 0
                    }
                  }
                }
              }
            }
            JOINT LeftShoulder
            {
              OFFSET 2.38034 -1.29275 -3.7523
              CHANNELS 3 Zrotation Xrotation Yrotation
              JOINT LeftArm
              {
                OFFSET 16.3182 6.07031e-005 0
                CHANNELS 3 Zrotation Xrotation Yrotation
                JOINT LeftForeArm
                {
                  OFFSET 27.0901 0 0
                  CHANNELS 3 Zrotation Xrotation Yrotation
                  JOINT LeftHand
                  {
                    OFFSET 24.5451 1.51738e-005 0
                    CHANNELS 3 Zrotation Xrotation Yrotation
                    End Site
                    {
                      OFFSET 0 0 0
                    }
                  }
                }
              }
            }
            JOINT Neck
            {
              OFFSET 5.0226 -0.0266342 0
              CHANNELS 3 Zrotation Xrotation Yrotation
              JOINT Head
              {
                OFFSET 6.69364 2.86102e-005 0
                CHANNELS 3 Zrotation Xrotation Yrotation
                End Site
                {
                  OFFSET 0 0 0
                }
              }
            }
          }
        }
      }
    }
  }
}
MOTION
Frames:	6
Frame Time:	0.0416667
27.4337 99.8248 22.1439 -101.238 -47.9963 -103.525 -174.205 0.276172 82.7125 -21.9132 2.66447 -1.7676 75.3518 6.00314 -1.40305 11.7361 -12.6236 7.42441 158.318 7.89589 70.7864 -19.3865 0.173852 2.47574 60.2711 -1.259 2.15762 32.8963 -1.7399 -1.05054 1.33733 7.70985 -89.7409 11.4541 2.78189 0.233674 -0.213894 2.78947 0.110914 -22.7702 2.58297 1.05949 -2.75759 2.58295 1.05949 88.9096 -29.9492 -108.934 40.737 -3.94125 -2.71576 4.2334 -26.136 -13.2628 -30.1623 -0.691339 -6.0796 -86.3837 -56.967 85.1574 -22.3019 1.32286 1.04594 -0.810627 1.66968 0.0020664 3.82126 -0.438281 -13.5354 -1.84487 25.0404 8.47996 1.01846 23.973 4.84777 
27.5776 99.8391 22.1645 -101.642 -49.2685 -104.296 -174.166 0.314102 82.524 -21.9559 4.10661 -1.9755 75.0962 6.24472 -1.16868 13.1672 -12.1029 8.09738 157.846 7.83483 70.1998 -19.441 0.992038 2.65241 60.2145 -1.17045 2.42806 33.26 -1.87944 -1.25542 1.37758 7.72805 -89.6769 11.4161 2.89188 0.351416 -0.251661 2.90456 0.223685 -22.809 2.65249 1.20489 -2.7964 2.6525 1.20489 88.8379 -30.1432 -108.995 40.6422 -3.69902 -2.81961 3.55706 -27.6245 -14.0038 -27.8622 -0.590919 -6.80228 -86.5137 -57.1951 85.0073 -21.1768 1.7918 -0.0713689 -1.18379 -0.27551 -0.0094898 3.95841 -0.544787 -13.7658 -2.4743 24.2669 8.01268 0.869384 23.3056 4.59235 
27.8652 99.9296 22.0241 -102.165 -49.7179 -104.641 -174.315 0.171905 82.4999 -21.7248 4.4787 -1.83388 74.7398 6.30772 -0.939539 12.9168 -12.0355 7.69635 158.048 7.11095 70.2716 -18.7108 1.70491 2.58901 59.9067 -1.04698 2.26701 33.1739 -1.84867 -1.1912 1.38171 7.77169 -89.692 11.3292 2.89317 0.324193 -0.338506 2.90462 0.196434 -22.8961 2.66188 1.17931 -2.88343 2.66188 1.17931 88.9887 -30.0666 -108.73 40.7635 -4.17307 -3.49786 3.64942 -28.8271 -14.1626 -28.9302 -0.769275 -6.20711 -86.7788 -57.1755 84.6359 -20.7886 1.82348 -2.43765 -1.11763 2.63649 -0.00943593 4.67961 -0.657983 -15.6821 -2.5353 23.9502 7.67665 0.992848 23.0464 4.81766 
28.0993 99.9238 21.9062 -102.511 -49.2174 -104.856 -174.124 0.13068 82.4955 -22.3422 4.20799 -2.04692 75.3917 6.38158 -2.05769 12.7915 -13.5593 10.2425 158.381 7.10547 70.3116 -18.9448 1.5145 2.39232 60.1022 -1.09164 2.47605 32.7018 -1.52755 -1.79506 1.30112 7.84701 -89.7035 11.1784 2.72745 0.323158 -0.489723 2.73904 0.202713 -23.0447 2.50417 1.12841 -3.03205 2.50417 1.12842 88.8341 -29.9797 -109.07 40.4485 -4.28328 -4.21831 3.03663 -28.7982 -15.1808 -29.4463 -0.864461 -5.78074 -86.6232 -57.0365 84.8331 -20.6302 2.30053 -5.61891 -1.22114 6.32664 -0.00265813 4.88875 -0.673231 -16.9631 -2.09001 23.552 7.86447 1.16805 22.5741 4.28651 
28.3235 99.8682 21.7649 -101.698 -47.2267 -104.1 -174.236 0.296509 82.2353 -21.903 1.44262 -2.08678 75.0114 5.92234 -1.82441 13.1626 -12.0218 7.94701 158.931 8.62043 70.5427 -20.1461 -0.34106 2.17855 60.3928 -1.11759 2.37829 32.1015 -1.24919 -1.73576 1.3235 7.86566 -89.7397 11.1421 2.75519 0.249612 -0.525962 2.76352 0.128004 -23.0818 2.55271 1.06664 -3.06916 2.55275 1.06665 89.5225 -29.5595 -107.88 40.5966 -4.25895 -4.57299 2.17648 -28.7862 -16.436 -29.3863 -0.430066 -7.71352 -87.036 -57.3843 84.3085 -20.0928 3.25725 -8.31208 -1.7535 7.71743 -8.89495e-005 5.03863 -0.762047 -18.3888 -0.688561 20.4089 8.08552 1.16158 19.2341 2.52293 
28.1378 99.9445 21.5039 -101.256 -44.3318 -102.77 -173.71 -0.0420674 83.0867 -21.8286 -0.301795 -2.31906 75.3834 5.94718 -2.28105 14.1145 -12.7321 10.3159 160.105 8.67198 71.801 -20.1147 -1.9571 1.86561 60.2567 -1.00837 2.21083 31.6442 -1.04611 -1.63961 1.24721 7.9538 -89.756 10.9657 2.59597 0.2386 -0.702669 2.60395 0.124025 -23.2561 2.40417 1.00819 -3.2435 2.40419 1.0082 88.5644 -30.3704 -109.436 39.2084 -3.93691 -4.96983 2.00412 -27.8807 -16.6868 -28.4859 -0.296082 -8.20073 -87.8683 -57.5553 83.1819 -20.42 0.924712 -10.021 0.492672 9.90658 0.00110125 5.05036 -0.751286 -19.2664 0.332705 13.0039 6.9485 3.69858 11.9061 0.795458 
